HIERARCHY
ROOT pelvis
{
	OFFSET 0.003123 -0.351407 0.012037
	CHANNELS 6 Xposition Yposition Zposition Zrotation Yrotation Xrotation 
	JOINT left_hip
	{
		OFFSET 0.058189 -0.092763 -0.026001
		CHANNELS 3 Zrotation Yrotation Xrotation
		JOINT left_knee
		{
			OFFSET 0.054695 -0.378753 -0.009396
			CHANNELS 3 Zrotation Yrotation Xrotation
			JOINT left_ankle
			{
				OFFSET -0.043453 -0.403059 -0.031876
				CHANNELS 3 Zrotation Yrotation Xrotation
				JOINT left_foot
				{
					OFFSET 0.047257 -0.057997 0.118216
					CHANNELS 3 Zrotation Yrotation Xrotation
					End Site
					{
						OFFSET 0.000000 0.000000 0.000000
					}
				}
			}
		}
	}
	JOINT right_hip
	{
		OFFSET -0.063267 -0.103908 -0.021250
		CHANNELS 3 Zrotation Yrotation Xrotation
		JOINT right_knee
		{
			OFFSET -0.044210 -0.362380 -0.016824
			CHANNELS 3 Zrotation Yrotation Xrotation
			JOINT right_ankle
			{
				OFFSET 0.015417 -0.410728 -0.020192
				CHANNELS 3 Zrotation Yrotation Xrotation
				JOINT right_foot
				{
					OFFSET -0.038812 -0.058328 0.119049
					CHANNELS 3 Zrotation Yrotation Xrotation
					End Site
					{
						OFFSET 0.000000 0.000000 0.000000
					}
				}
			}
		}
	}
	JOINT spine_1
	{
		OFFSET -0.002763 0.109891 -0.027618
		CHANNELS 3 Zrotation Yrotation Xrotation
		JOINT spine_2
		{
			OFFSET 0.009448 0.131853 -0.005940
			CHANNELS 3 Zrotation Yrotation Xrotation
			JOINT spine_3
			{
				OFFSET -0.011330 0.052235 0.028447
				CHANNELS 3 Zrotation Yrotation Xrotation
				JOINT neck
				{
					OFFSET -0.012164 0.165167 -0.031615
					CHANNELS 3 Zrotation Yrotation Xrotation
					JOINT head
					{
						OFFSET 0.024783 0.160452 0.020737
						CHANNELS 3 Zrotation Yrotation Xrotation
						End Site
						{
							OFFSET 0.000000 0.000000 0.000000
						}
					}
				}
				JOINT left_collar
				{
					OFFSET 0.046364 0.084944 -0.007220
					CHANNELS 3 Zrotation Yrotation Xrotation
					JOINT left_shoulder
					{
						OFFSET 0.119239 0.057728 -0.015461
						CHANNELS 3 Zrotation Yrotation Xrotation
						JOINT left_elbow
						{
							OFFSET 0.254123 -0.072151 -0.042459
							CHANNELS 3 Zrotation Yrotation Xrotation
							JOINT left_wrist
							{
								OFFSET 0.251987 0.023221 -0.002472
								CHANNELS 3 Zrotation Yrotation Xrotation
								JOINT left_index_1
								{
									OFFSET 0.101902 -0.008688 0.019351
									CHANNELS 3 Zrotation Yrotation Xrotation
									JOINT left_index_2
									{
										OFFSET 0.030149 -0.011154 0.001151
										CHANNELS 3 Zrotation Yrotation Xrotation
										JOINT left_index_3
										{
											OFFSET 0.006504 -0.021577 -0.002433
											CHANNELS 3 Zrotation Yrotation Xrotation
											End Site
											{
												OFFSET 0.000000 0.000000 0.000000
											}
										}
									}
								}
								JOINT left_middle_1
								{
									OFFSET 0.109398 -0.006328 -0.003981
									CHANNELS 3 Zrotation Yrotation Xrotation
									JOINT left_middle_2
									{
										OFFSET 0.026472 -0.015218 -0.004641
										CHANNELS 3 Zrotation Yrotation Xrotation
										JOINT left_middle_3
										{
											OFFSET 0.005022 -0.023347 -0.001911
											CHANNELS 3 Zrotation Yrotation Xrotation
											End Site
											{
												OFFSET 0.000000 0.000000 0.000000
											}
										}
									}
								}
								JOINT left_pinky_1
								{
									OFFSET 0.084047 -0.014539 -0.043750
									CHANNELS 3 Zrotation Yrotation Xrotation
									JOINT left_pinky_2
									{
										OFFSET 0.012124 -0.014448 -0.005375
										CHANNELS 3 Zrotation Yrotation Xrotation
										JOINT left_pinky_3
										{
											OFFSET 0.003798 -0.018853 0.000167
											CHANNELS 3 Zrotation Yrotation Xrotation
											End Site
											{
												OFFSET 0.000000 0.000000 0.000000
											}
										}
									}
								}
								JOINT left_ring_1
								{
									OFFSET 0.097444 -0.009268 -0.027345
									CHANNELS 3 Zrotation Yrotation Xrotation
									JOINT left_ring_2
									{
										OFFSET 0.023561 -0.016057 -0.001895
										CHANNELS 3 Zrotation Yrotation Xrotation
										JOINT left_ring_3
										{
											OFFSET 0.004257 -0.023548 0.000814
											CHANNELS 3 Zrotation Yrotation Xrotation
											End Site
											{
												OFFSET 0.000000 0.000000 0.000000
											}
										}
									}
								}
								JOINT left_thumb_1
								{
									OFFSET 0.040636 -0.017977 0.025611
									CHANNELS 3 Zrotation Yrotation Xrotation
									JOINT left_thumb_2
									{
										OFFSET 0.021637 -0.017639 0.011623
										CHANNELS 3 Zrotation Yrotation Xrotation
										JOINT left_thumb_3
										{
											OFFSET 0.024002 -0.008356 0.006548
											CHANNELS 3 Zrotation Yrotation Xrotation
											End Site
											{
												OFFSET 0.000000 0.000000 0.000000
											}
										}
									}
								}
							}
						}
					}
				}
				JOINT right_collar
				{
					OFFSET -0.047695 0.084339 -0.013400
					CHANNELS 3 Zrotation Yrotation Xrotation
					JOINT right_shoulder
					{
						OFFSET -0.102578 0.053524 -0.012669
						CHANNELS 3 Zrotation Yrotation Xrotation
						JOINT right_elbow
						{
							OFFSET -0.271150 -0.036492 -0.026467
							CHANNELS 3 Zrotation Yrotation Xrotation
							JOINT right_wrist
							{
								OFFSET -0.249267 -0.004533 -0.015325
								CHANNELS 3 Zrotation Yrotation Xrotation
								JOINT right_index_1
								{
									OFFSET -0.099881 -0.011783 0.019600
									CHANNELS 3 Zrotation Yrotation Xrotation
									JOINT right_index_2
									{
										OFFSET -0.030148 -0.011154 0.001151
										CHANNELS 3 Zrotation Yrotation Xrotation
										JOINT right_index_3
										{
											OFFSET -0.006505 -0.021577 -0.002432
											CHANNELS 3 Zrotation Yrotation Xrotation
											End Site
											{
												OFFSET 0.000000 0.000000 0.000000
											}
										}
									}
								}
								JOINT right_middle_1
								{
									OFFSET -0.107376 -0.009422 -0.003734
									CHANNELS 3 Zrotation Yrotation Xrotation
									JOINT right_middle_2
									{
										OFFSET -0.026472 -0.015218 -0.004641
										CHANNELS 3 Zrotation Yrotation Xrotation
										JOINT right_middle_3
										{
											OFFSET -0.005022 -0.023347 -0.001911
											CHANNELS 3 Zrotation Yrotation Xrotation
											End Site
											{
												OFFSET 0.000000 0.000000 0.000000
											}
										}
									}
								}
								JOINT right_pinky_1
								{
									OFFSET -0.082027 -0.017634 -0.043503
									CHANNELS 3 Zrotation Yrotation Xrotation
									JOINT right_pinky_2
									{
										OFFSET -0.012123 -0.014448 -0.005374
										CHANNELS 3 Zrotation Yrotation Xrotation
										JOINT right_pinky_3
										{
											OFFSET -0.003798 -0.018852 0.000167
											CHANNELS 3 Zrotation Yrotation Xrotation
											End Site
											{
												OFFSET 0.000000 0.000000 0.000000
											}
										}
									}
								}
								JOINT right_ring_1
								{
									OFFSET -0.095423 -0.012362 -0.027099
									CHANNELS 3 Zrotation Yrotation Xrotation
									JOINT right_ring_2
									{
										OFFSET -0.023561 -0.016057 -0.001895
										CHANNELS 3 Zrotation Yrotation Xrotation
										JOINT right_ring_3
										{
											OFFSET -0.004257 -0.023548 0.000816
											CHANNELS 3 Zrotation Yrotation Xrotation
											End Site
											{
												OFFSET 0.000000 0.000000 0.000000
											}
										}
									}
								}
								JOINT right_thumb_1
								{
									OFFSET -0.038613 -0.021074 0.025861
									CHANNELS 3 Zrotation Yrotation Xrotation
									JOINT right_thumb_2
									{
										OFFSET -0.021636 -0.017639 0.011623
										CHANNELS 3 Zrotation Yrotation Xrotation
										JOINT right_thumb_3
										{
											OFFSET -0.024004 -0.008353 0.006547
											CHANNELS 3 Zrotation Yrotation Xrotation
											End Site
											{
												OFFSET 0.000000 0.000000 0.000000
											}
										}
									}
								}
							}
						}
					}
				}
			}
		}
	}
}
MOTION
Frames: 5
Frame Time: 0.050000
-0.045436 0.957541 -0.037689 -0.112589 -0.588632 -6.935689 5.193654 0.606464 6.722126 -2.994807 -0.574118 9.979091 -1.572020 1.160363 5.393707 0.000000 0.000000 0.000000 -3.745255 0.413748 -3.169152 1.306341 0.268156 12.290906 4.481049 5.872431 4.137598 0.000000 0.000000 0.000000 0.269257 -1.367661 18.968447 -8.527939 -1.337429 -20.694441 9.960604 -0.525240 27.616717 -3.263178 1.141291 -4.538040 0.000000 0.000000 0.000000 2.571372 -1.718554 1.019385 -57.223808 -0.214009 -10.086672 -147.486765 -78.407690 155.593092 14.341315 8.158273 -46.536357 12.995338 1.458949 1.575803 6.645688 -6.963930 -19.282790 0.000000 0.000000 0.000000 2.962076 -7.313138 -3.614000 3.503884 -4.996448 -17.136680 0.000000 0.000000 0.000000 4.826290 -24.153139 -31.236058 13.496272 0.953934 3.954279 0.000000 0.000000 0.000000 -12.647258 -18.698953 -7.164163 19.469947 0.136379 -12.531863 0.000000 0.000000 0.000000 30.302917 9.331686 -7.136943 -14.751081 6.850637 7.290505 0.000000 0.000000 0.000000 -10.127908 3.967972 2.512828 58.994671 9.446766 -3.615394 -135.950042 75.332230 -123.428435 -10.713169 -5.742934 -53.512694 -8.986488 3.346563 0.620949 -3.361480 9.924450 -20.812070 0.000000 0.000000 0.000000 14.399087 12.638403 -4.446679 1.319660 7.333194 -20.530812 0.000000 0.000000 0.000000 -1.986702 21.973885 -27.701462 -5.249941 -0.967853 2.958111 0.000000 0.000000 0.000000 17.398445 18.005474 -4.918754 -12.558948 5.138546 -23.681270 0.000000 0.000000 0.000000 -25.678451 -13.147337 -3.036977 4.952313 -1.482260 2.630844 0.000000 0.000000 0.000000 
-0.038134 0.956896 -0.039009 -0.346672 -1.425482 -7.193847 4.894118 0.726561 7.519216 -3.160612 -0.484649 9.420927 -0.844087 1.758211 4.451065 0.000000 0.000000 0.000000 -3.935287 0.437514 -3.339016 1.135986 0.321703 12.682028 5.078092 6.801532 4.366705 0.000000 0.000000 0.000000 0.047056 -1.339135 18.884346 -8.850317 -1.171735 -20.338782 10.580495 0.366678 27.205034 -3.208547 1.056089 -3.877616 0.000000 0.000000 0.000000 1.603506 -1.326968 0.773060 -56.969571 2.856613 -10.752703 -138.827601 -72.644038 141.395966 15.299970 6.442535 -40.367023 11.870592 1.063790 0.938342 7.933578 -4.250721 -16.376732 0.000000 0.000000 0.000000 4.029927 -6.660580 -3.201050 3.582360 -3.365991 -13.937755 0.000000 0.000000 0.000000 7.273583 -21.266809 -29.183911 11.377100 1.203709 4.726623 0.000000 0.000000 0.000000 -11.322633 -15.488476 -6.651197 17.862923 0.530535 -9.622878 0.000000 0.000000 0.000000 26.514981 9.264385 -7.033172 -12.728706 5.384151 5.708709 0.000000 0.000000 0.000000 -9.512268 4.183190 2.556201 59.559842 8.414706 -3.948943 -150.138919 77.368558 -142.463486 -9.832527 -3.876455 -51.764672 -8.835234 3.569025 0.436463 -0.670541 9.617904 -19.100248 0.000000 0.000000 0.000000 13.633992 10.928989 -4.269972 3.484902 8.351525 -21.251382 0.000000 0.000000 0.000000 -2.360463 20.551053 -26.982733 -2.908996 -1.381557 4.009721 0.000000 0.000000 0.000000 16.992596 16.384269 -4.782729 -8.608746 6.374321 -23.304335 0.000000 0.000000 0.000000 -24.074262 -12.748766 -3.269769 3.725227 -1.646795 2.456598 0.000000 0.000000 0.000000 
-0.030125 0.955929 -0.041649 -0.709707 -0.388915 -7.601566 4.836964 0.723785 7.630631 -3.169204 -0.504894 9.453483 -0.706402 1.496333 3.680083 0.000000 0.000000 0.000000 -4.149197 0.385485 -2.866457 1.076402 0.312643 12.632921 5.017722 6.582157 4.567515 0.000000 0.000000 0.000000 0.109695 -1.369277 19.125093 -8.788228 -1.143507 -20.354134 10.330485 -0.209584 27.334010 -2.818195 0.941345 -3.399314 0.000000 0.000000 0.000000 0.900947 -1.592270 0.847506 -57.521669 4.908620 -11.347453 -138.613777 -68.945579 138.501316 15.587458 4.802615 -36.580248 12.266533 0.792188 0.682215 10.409380 -2.604414 -13.805307 0.000000 0.000000 0.000000 6.062629 -5.168191 -2.174487 3.293068 -2.788532 -12.346352 0.000000 0.000000 0.000000 8.908087 -19.762171 -27.917714 8.904959 1.053521 3.757522 0.000000 0.000000 0.000000 -11.144662 -14.032082 -6.283576 15.682626 0.526222 -7.950997 0.000000 0.000000 0.000000 24.240921 9.332621 -6.563274 -11.654706 4.694110 4.960116 0.000000 0.000000 0.000000 -9.082950 4.781473 2.776338 60.750260 7.058389 -4.510841 -163.730966 77.138143 -159.296883 -9.486507 -2.739397 -48.674079 -8.945467 3.032398 0.225728 -2.626158 7.885054 -19.057375 0.000000 0.000000 0.000000 11.123031 10.600764 -4.647345 4.239046 7.930999 -19.930868 0.000000 0.000000 0.000000 -5.991910 19.023840 -26.974775 -0.807818 -1.896817 5.376730 0.000000 0.000000 0.000000 14.686816 15.033569 -5.354316 -7.824226 5.698044 -21.348763 0.000000 0.000000 0.000000 -23.842741 -13.185430 -3.201532 5.943323 0.056370 1.767825 0.000000 0.000000 0.000000 
-0.022351 0.954962 -0.045609 -0.881858 0.530933 -7.888580 4.572609 0.710787 7.460058 -3.266406 -0.520430 9.630669 -0.494761 1.423155 3.009060 0.000000 0.000000 0.000000 -4.495938 0.384527 -2.971477 0.967390 0.331230 13.190833 4.894812 6.280082 4.718853 0.000000 0.000000 0.000000 -0.225275 -1.371256 19.601815 -8.797608 -0.953212 -19.853549 10.435247 -0.149004 26.653395 -2.417631 0.901673 -3.550014 0.000000 0.000000 0.000000 0.365060 -1.777859 0.897936 -58.347446 5.193772 -11.705397 -141.812734 -67.006996 141.380508 17.081469 2.958624 -33.816246 12.479261 0.789052 0.540462 10.829954 -1.952744 -11.930829 0.000000 0.000000 0.000000 6.723668 -4.082834 -1.405669 3.230214 -2.079686 -10.418224 0.000000 0.000000 0.000000 9.196531 -19.782786 -27.937174 7.120814 1.182104 4.146238 0.000000 0.000000 0.000000 -12.607846 -13.444035 -5.759957 12.470567 0.040373 -7.976268 0.000000 0.000000 0.000000 21.925015 10.372067 -5.057112 -9.813257 2.600406 3.526308 0.000000 0.000000 0.000000 -8.596449 4.472979 2.588123 61.924817 6.531989 -4.531432 -167.813890 75.751348 -163.952848 -8.829649 -2.164757 -47.165319 -9.526219 3.494570 0.101967 1.480128 8.124135 -16.770097 0.000000 0.000000 0.000000 10.309596 10.900467 -4.953069 6.219420 8.278267 -19.477278 0.000000 0.000000 0.000000 -6.670851 18.547830 -27.039015 0.503592 -2.301368 6.335092 0.000000 0.000000 0.000000 14.972611 15.040443 -5.503515 -6.496252 5.771254 -20.476562 0.000000 0.000000 0.000000 -22.457354 -12.908167 -3.168436 3.965235 0.556176 1.037867 0.000000 0.000000 0.000000 
-0.014107 0.953350 -0.048248 -1.035620 0.706171 -7.908999 4.187769 0.695418 7.063843 -3.501405 -0.518320 10.042057 0.128409 2.035442 2.250928 0.000000 0.000000 0.000000 -4.867203 0.454726 -3.869781 0.827869 0.388284 14.401796 5.066566 6.398869 5.002300 0.000000 0.000000 0.000000 -0.321065 -1.367010 19.641354 -8.935457 -1.071264 -20.481918 10.784508 0.826561 27.508607 -2.211482 0.893090 -3.614521 0.000000 0.000000 0.000000 0.084576 -1.867405 0.917738 -58.997184 5.068573 -12.116099 -148.743395 -65.439772 150.369295 19.092245 2.539826 -31.333742 11.109932 0.382295 0.200419 11.656701 -1.509631 -10.570103 0.000000 0.000000 0.000000 6.289042 -4.986845 -1.958763 4.048762 -1.677945 -9.703540 0.000000 0.000000 0.000000 11.535194 -19.833692 -28.172669 7.236287 1.216232 4.392287 0.000000 0.000000 0.000000 -11.716498 -13.127915 -5.873155 12.849060 0.215889 -7.725148 0.000000 0.000000 0.000000 21.049662 10.751321 -4.355319 -8.849542 2.385552 3.146312 0.000000 0.000000 0.000000 -8.419183 4.179458 2.357484 63.579331 5.287601 -4.787657 -165.718506 71.781001 -159.233128 -9.405589 -2.768054 -46.023337 -8.988476 2.898052 0.038961 0.430575 8.073990 -17.747954 0.000000 0.000000 0.000000 9.486628 11.591871 -5.263863 4.959478 7.922100 -20.088753 0.000000 0.000000 0.000000 -8.214043 19.207512 -28.154458 0.537052 -2.358387 6.655733 0.000000 0.000000 0.000000 14.916663 15.933138 -5.944676 -7.466162 5.116052 -20.205998 0.000000 0.000000 0.000000 -22.973469 -13.453558 -2.942604 6.521421 2.022198 0.821883 0.000000 0.000000 0.000000 
